<?xml version="1.0" encoding="iso-8859-1"?>
<!-- Generator: Adobe Illustrator 19.0.0, SVG Export Plug-In . SVG Version: 6.00 Build 0)  -->
<svg version="1.1" id="Layer_1" xmlns="http://www.w3.org/2000/svg" xmlns:xlink="http://www.w3.org/1999/xlink" x="0px"
     y="0px"
     viewBox="0 0 278.334 278.334" style="enable-background:new 0 0 278.334 278.334;" xml:space="preserve">
<g>
	<g>
		<g>
			<path d="M270.834,243.333H254.82v-2.499c0-4.142-3.357-7.5-7.5-7.5s-7.5,3.358-7.5,7.5v2.499h-39.955v-2.499
				c0-4.142-3.357-7.5-7.5-7.5s-7.5,3.358-7.5,7.5v2.499H144.91v-2.499c0-4.142-3.357-7.5-7.5-7.5s-7.5,3.358-7.5,7.5v2.499H89.955
				v-2.499c0-4.142-3.357-7.5-7.5-7.5s-7.5,3.358-7.5,7.5v2.499H35v-91.636l39.964-12.363c0.09,4.063,3.406,7.332,7.492,7.332
				c4.143,0,7.5-3.358,7.5-7.5v-6.895l42.474-42.509c3.456,3.078,8.791,2.323,11.282-1.538l41.154,30.703v6.239
				c0,4.142,3.357,7.5,7.5,7.5s7.5-3.358,7.5-7.5v-6.239l40.798-30.438l5.828,7.644c2.473,3.244,7.531,2.594,9.103-1.17
				l14.109-33.767c1.573-3.764-1.519-7.819-5.565-7.299l-36.298,4.665c-4.046,0.52-6.012,5.225-3.538,8.469l7.266,9.53
				l-39.203,29.248l-50.47-37.654c-2.973-2.218-7.158-1.919-9.787,0.706c-0.001,0.001-0.002,0.001-0.002,0.002
				c-0.001,0.001-0.002,0.001-0.002,0.002L78.463,122.55L35,135.995V7.5C35,3.359,31.643,0,27.5,0S20,3.357,20,7.5
				c0,6.017,0,225.639,0,235.833H7.5c-4.143,0-7.5,3.358-7.5,7.5c0,4.142,3.357,7.5,7.5,7.5H20v12.5c0,4.142,3.357,7.5,7.5,7.5
				s7.5-3.358,7.5-7.5v-12.5c20.179,0,225.585,0,235.834,0c4.143,0,7.5-3.358,7.5-7.5
				C278.334,246.69,274.977,243.333,270.834,243.333z"/>
            <path d="M89.955,159.5c0-4.142-3.357-7.5-7.5-7.5s-7.5,3.358-7.5,7.5v20.333c0,4.142,3.357,7.5,7.5,7.5s7.5-3.358,7.5-7.5V159.5z
				"/>
            <path d="M82.455,192.666c-4.143,0-7.5,3.358-7.5,7.5v20.333c0,4.142,3.357,7.5,7.5,7.5s7.5-3.358,7.5-7.5v-20.333
				C89.955,196.024,86.598,192.666,82.455,192.666z"/>
            <path d="M144.91,151.309c0-4.142-3.357-7.5-7.5-7.5s-7.5,3.358-7.5,7.5v22.381c0,4.142,3.357,7.5,7.5,7.5s7.5-3.358,7.5-7.5
				V151.309z"/>
            <path d="M144.91,106.547c0-4.142-3.357-7.5-7.5-7.5s-7.5,3.358-7.5,7.5v22.381c0,4.142,3.357,7.5,7.5,7.5s7.5-3.358,7.5-7.5
				V106.547z"/>
            <path d="M137.41,188.572c-4.143,0-7.5,3.358-7.5,7.5v22.381c0,4.142,3.357,7.5,7.5,7.5s7.5-3.358,7.5-7.5v-22.381
				C144.91,191.929,141.553,188.572,137.41,188.572z"/>
            <path d="M192.365,187.067c-4.143,0-7.5,3.358-7.5,7.5V217.7c0,4.142,3.357,7.5,7.5,7.5s7.5-3.358,7.5-7.5v-23.133
				C199.865,190.424,196.508,187.067,192.365,187.067z"/>
            <path d="M199.865,148.299c0-4.142-3.357-7.5-7.5-7.5s-7.5,3.358-7.5,7.5v23.133c0,4.142,3.357,7.5,7.5,7.5s7.5-3.358,7.5-7.5
				V148.299z"/>
            <path d="M254.82,151.309c0-4.142-3.357-7.5-7.5-7.5s-7.5,3.358-7.5,7.5v22.381c0,4.142,3.357,7.5,7.5,7.5s7.5-3.358,7.5-7.5
				V151.309z"/>
            <path d="M247.32,188.572c-4.143,0-7.5,3.358-7.5,7.5v22.381c0,4.142,3.357,7.5,7.5,7.5s7.5-3.358,7.5-7.5v-22.381
				C254.82,191.929,251.463,188.572,247.32,188.572z"/>
            <path d="M254.82,106.547c0-4.142-3.357-7.5-7.5-7.5s-7.5,3.358-7.5,7.5v22.381c0,4.142,3.357,7.5,7.5,7.5s7.5-3.358,7.5-7.5
				V106.547z"/>
		</g>
	</g>
</g>
    <g>
</g>
    <g>
</g>
    <g>
</g>
    <g>
</g>
    <g>
</g>
    <g>
</g>
    <g>
</g>
    <g>
</g>
    <g>
</g>
    <g>
</g>
    <g>
</g>
    <g>
</g>
    <g>
</g>
    <g>
</g>
    <g>
</g>
</svg>
