<?xml version="1.0" encoding="iso-8859-1"?>
<!-- Generator: Adobe Illustrator 19.0.0, SVG Export Plug-In . SVG Version: 6.00 Build 0)  -->
<svg version="1.1" id="Capa_1" xmlns="http://www.w3.org/2000/svg" xmlns:xlink="http://www.w3.org/1999/xlink" x="0px"
     y="0px"
     viewBox="0 0 462.934 462.934" style="enable-background:new 0 0 462.934 462.934;" xml:space="preserve">
<g>
	<path d="M455.709,238.691c0-56.516-21.091-110.501-59.387-152.013c-36.952-40.054-86.704-65.116-140.554-70.923
		c-1.088-2.43-2.537-4.711-4.334-6.747C246.38,3.283,239.103,0,231.467,0c-7.636,0-14.913,3.283-19.966,9.007
		c-5.053,5.725-7.408,13.353-6.461,20.93l10.867,86.937c0.977,7.823,7.659,13.722,15.579,13.722c7.884,0,14.566-5.899,15.543-13.722
		l0,0l10.722-85.778c48.855,6.124,93.889,29.269,127.547,65.753c34.035,36.892,53.491,84.347,55.265,134.342h-28.477
		c-4.142,0-7.5,3.358-7.5,7.5s3.358,7.5,7.5,7.5h28.475c-3.876,109.424-92.169,197.717-201.593,201.593V419.31
		c0-4.142-3.358-7.5-7.5-7.5s-7.5,3.358-7.5,7.5v28.474C114.542,443.908,26.25,355.616,22.374,246.191h28.475
		c4.142,0,7.5-3.358,7.5-7.5s-3.358-7.5-7.5-7.5H22.371c0.922-26.455,6.713-52.07,17.282-76.243
		c11.173-25.555,27.116-48.32,47.386-67.661c2.997-2.86,3.108-7.607,0.249-10.604c-2.86-2.996-7.606-3.108-10.604-0.249
		c-21.717,20.723-38.8,45.117-50.774,72.505c-12.398,28.357-18.685,58.554-18.685,89.751c0,59.897,23.325,116.209,65.679,158.563
		c42.351,42.351,98.658,65.675,158.55,65.679c0.004,0,0.008,0.001,0.013,0.001s0.009-0.001,0.013-0.001
		c59.893-0.003,116.2-23.328,158.551-65.679C432.384,354.9,455.709,298.588,455.709,238.691z M243.01,28.077l-10.867,86.938l0,0
		c-0.041,0.332-0.324,0.581-0.694,0.581c-0.334,0-0.617-0.25-0.659-0.582l-10.867-86.938c-0.42-3.358,0.583-6.605,2.822-9.142
		S228.082,15,231.467,15c3.384,0,6.481,1.397,8.721,3.935S243.43,24.718,243.01,28.077z"/>
    <path d="M195.198,235.739c-0.079,0.975-0.13,1.958-0.13,2.953c0,20.07,16.328,36.399,36.398,36.399s36.399-16.329,36.399-36.399
		s-16.329-36.399-36.399-36.399c-0.132,0-0.261,0.009-0.393,0.01l-103.21-84.996c-2.911-2.396-7.15-2.26-9.9,0.321
		c-2.75,2.581-3.156,6.803-0.948,9.86L195.198,235.739z M252.865,238.691c0,11.799-9.6,21.399-21.399,21.399
		s-21.398-9.6-21.398-21.399c0-0.98,0.089-1.937,0.217-2.882c0.143-0.519,0.231-1.052,0.26-1.59
		c1.847-8.647,8.934-15.354,17.764-16.668c0.742,0.039,1.485-0.032,2.207-0.211c0.317-0.014,0.629-0.048,0.949-0.048
		C243.266,217.292,252.865,226.892,252.865,238.691z M213.353,207.14c-4.857,2.8-9.014,6.681-12.129,11.322l-37.981-52.589
		L213.353,207.14z"/>
</g>
    <g>
</g>
    <g>
</g>
    <g>
</g>
    <g>
</g>
    <g>
</g>
    <g>
</g>
    <g>
</g>
    <g>
</g>
    <g>
</g>
    <g>
</g>
    <g>
</g>
    <g>
</g>
    <g>
</g>
    <g>
</g>
    <g>
</g>
</svg>
